# xmcd
#
# Track frame offsets: 
#        150
#        12948
#        26330
#        42928
#        57205
#        73048
#        86052
#        103613
#        120293
#        141838
#        156728
#        170996
#        186115
#        201138
#        213990
#        230737
#        245212
#        256495
#        278502
#        294260
#
# Disc length: 4262 seconds
#
# Revision: 3
# Processed by: cddbd v1.5.2PL0 Copyright (c) Steve Scherf et al.
# Submitted via: ExactAudioCopyFreeDBPlugin 1.0
#
DISCID=2a10a414
DTITLE=Taylor Swift - Lover
DYEAR=2019
DGENRE=Pop
TTITLE0=I Forgot That You Existed
TTITLE1=Cruel Summer
TTITLE2=Lover
TTITLE3=The Man
TTITLE4=The Archer
TTITLE5=I Think He Knows
TTITLE6=Miss Americana and the Heartbreak Prince
TTITLE7=Paper Rings
TTITLE8=Cornelia Street
TTITLE9=Death by a Thousand Cuts
TTITLE10=London Boy
TTITLE11=Soon You'll Get Better (featuring Dixie Chicks)
TTITLE12=False God
TTITLE13=You Need to Calm Down
TTITLE14=Afterglow
TTITLE15=Me! (featuring Brendon Urie of Panic! at the Disco)
TTITLE16=It's Nice to Have a Friend
TTITLE17=Daylight
TTITLE18=I Forgot That You Existed (Piano Vocal)
TTITLE19=Lover (Piano Vocal)
EXTD=
EXTT0=
EXTT1=
EXTT2=
EXTT3=
EXTT4=
EXTT5=
EXTT6=
EXTT7=
EXTT8=
EXTT9=
EXTT10=
EXTT11=
EXTT12=
EXTT13=
EXTT14=
EXTT15=
EXTT16=
EXTT17=
EXTT18=
EXTT19=
PLAYORDER=
